<svg xmlns="http://www.w3.org/2000/svg" viewBox="0 0 900 900">
  <defs><radialGradient id="g" cx="50%" cy="45%" r="70%"><stop offset="0%" stop-color="#b9d3ff" stop-opacity="0.95"/><stop offset="48%" stop-color="#16233d"/><stop offset="100%" stop-color="#050814"/></radialGradient><filter id="blur"><feGaussianBlur stdDeviation="12"/></filter></defs>
  <rect width="900" height="900" fill="url(#g)"/><g opacity="0.26"><circle cx="450" cy="450" r="260" fill="none" stroke="#fff" stroke-width="2"/><circle cx="450" cy="450" r="210" fill="none" stroke="#fff" stroke-width="1"/><circle cx="450" cy="450" r="150" fill="none" stroke="#fff" stroke-width="1"/></g>
  <path d="M90 550 C220 390, 300 680, 450 475 S710 180, 820 330" fill="none" stroke="#fff" stroke-opacity="0.42" stroke-width="18" stroke-linecap="round" filter="url(#blur)"/><path d="M90 555 C220 395, 300 685, 450 480 S710 185, 820 335" fill="none" stroke="#fff" stroke-opacity="0.65" stroke-width="4" stroke-linecap="round"/>
  <g fill="#fff" opacity="0.86"><circle cx="180" cy="170" r="5"/><circle cx="700" cy="160" r="3"/><circle cx="760" cy="620" r="4"/><circle cx="290" cy="720" r="3"/><path d="M650 245l9 24 25 8-25 8-9 24-8-24-25-8 25-8z"/><path d="M260 320l6 18 18 6-18 6-6 18-6-18-18-6 18-6z"/></g>
  <rect x="58" y="58" width="784" height="784" fill="none" stroke="#fff" stroke-opacity="0.22" stroke-width="2"/><text x="450" y="696" text-anchor="middle" font-family="Arial, Helvetica, sans-serif" font-size="60" font-weight="700" fill="#fff" letter-spacing="9">FALLING THROUGH</text><text x="450" y="752" text-anchor="middle" font-family="Arial, Helvetica, sans-serif" font-size="24" fill="#dfe8ff" letter-spacing="9">SINGLE</text>
</svg>