<svg xmlns="http://www.w3.org/2000/svg" width="1200" height="1200" viewBox="0 0 1200 1200" role="img" aria-label="MI CASA SU CASA cover art">
  <defs>
    <radialGradient id="bg" cx="62%" cy="36%" r="72%">
      <stop offset="0" stop-color="#94bfff" stop-opacity="0.95"/>
      <stop offset="0.32" stop-color="#13284e"/>
      <stop offset="1" stop-color="#02060f"/>
    </radialGradient>
    <linearGradient id="line" x1="0" x2="1">
      <stop offset="0" stop-color="#ffffff" stop-opacity="0"/>
      <stop offset="0.5" stop-color="#ffffff" stop-opacity="0.95"/>
      <stop offset="1" stop-color="#ffffff" stop-opacity="0"/>
    </linearGradient>
    <filter id="glow" x="-40%" y="-40%" width="180%" height="180%">
      <feGaussianBlur stdDeviation="18" result="blur"/>
      <feMerge><feMergeNode in="blur"/><feMergeNode in="SourceGraphic"/></feMerge>
    </filter>
  </defs>
  <rect width="1200" height="1200" rx="110" fill="url(#bg)"/>
  <g opacity="0.22">
    <circle cx="935" cy="190" r="5" fill="#fff"/><circle cx="1000" cy="338" r="3" fill="#fff"/><circle cx="179" cy="238" r="4" fill="#fff"/><circle cx="260" cy="860" r="4" fill="#fff"/><circle cx="1045" cy="916" r="5" fill="#fff"/><circle cx="760" cy="1020" r="3" fill="#fff"/>
    <path d="M80 860 C300 700, 424 1000, 650 770 S1010 648, 1130 505" stroke="#fff" stroke-width="3" fill="none"/>
    <path d="M-40 560 C220 430, 396 635, 610 522 S990 365, 1240 485" stroke="#fff" stroke-width="2" fill="none"/>
  </g>
  <g transform="translate(600 500)" filter="url(#glow)">
    <circle r="268" fill="#030916" opacity="0.72"/>
    <circle r="226" fill="none" stroke="#dce8ff" stroke-opacity="0.35" stroke-width="10"/>
    <circle r="164" fill="none" stroke="#dce8ff" stroke-opacity="0.25" stroke-width="8"/>
    <circle r="86" fill="none" stroke="#dce8ff" stroke-opacity="0.18" stroke-width="5"/>
    <circle r="22" fill="#fff" opacity="0.96"/>
    <path d="M-415 16 h830" stroke="url(#line)" stroke-width="5" stroke-linecap="round" opacity="0.85"/>
    <g fill="#eaf1ff" opacity="0.78">
      <rect x="-485" y="-32" width="18" height="64" rx="9"/><rect x="-438" y="-63" width="18" height="126" rx="9"/><rect x="-391" y="-102" width="18" height="204" rx="9"/><rect x="-344" y="-70" width="18" height="140" rx="9"/><rect x="-297" y="-41" width="18" height="82" rx="9"/>
      <rect x="467" y="-32" width="18" height="64" rx="9"/><rect x="420" y="-63" width="18" height="126" rx="9"/><rect x="373" y="-102" width="18" height="204" rx="9"/><rect x="326" y="-70" width="18" height="140" rx="9"/><rect x="279" y="-41" width="18" height="82" rx="9"/>
    </g>
  </g>
  <text x="600" y="885" text-anchor="middle" fill="#ffffff" font-size="82" font-family="Inter, Arial, sans-serif" font-weight="900" letter-spacing="-2">MI CASA SU CASA</text>
  <text x="600" y="950" text-anchor="middle" fill="#dce8ff" font-size="34" font-family="Inter, Arial, sans-serif" font-weight="700" letter-spacing="8">BLOCBOYKIDDIE</text>
  <text x="600" y="1030" text-anchor="middle" fill="#ffffff" opacity="0.72" font-size="22" font-family="Inter, Arial, sans-serif" font-weight="800" letter-spacing="4">NEBULA RECORDS</text>
</svg>