<svg xmlns="http://www.w3.org/2000/svg" viewBox="0 0 900 1100"><defs><linearGradient id="bg" x1="0" x2="1" y1="0" y2="1"><stop offset="0" stop-color="#0a1023"/><stop offset="1" stop-color="#2b1735"/></linearGradient><radialGradient id="glow" cx="55%" cy="30%" r="60%"><stop offset="0" stop-color="#d78cff" stop-opacity="0.85"/><stop offset="100%" stop-color="#2b1735" stop-opacity="0"/></radialGradient></defs><rect width="900" height="1100" fill="url(#bg)"/><circle cx="610" cy="260" r="360" fill="url(#glow)" opacity="0.82"/><g opacity="0.72" fill="#040714"><circle cx="455" cy="380" r="145"/><path d="M260 1070c20-235 70-410 196-410s178 175 198 410z"/><path d="M342 313c55-95 185-114 262-28-70-36-160-18-262 28z" opacity="0.85"/></g><g opacity="0.45" stroke="#fff" stroke-width="2" fill="none"><path d="M80 280c210-70 440-70 740 0"/><path d="M80 330c230-80 460-80 740 0" opacity="0.55"/></g><g fill="#fff" opacity="0.8"><circle cx="170" cy="190" r="4"/><circle cx="760" cy="210" r="3"/><circle cx="700" cy="600" r="4"/><path d="M710 120l8 22 23 8-23 8-8 22-8-22-23-8 23-8z"/></g><rect x="0" y="760" width="900" height="340" fill="#050814" opacity="0.62"/><text x="58" y="935" font-family="Arial, Helvetica, sans-serif" font-size="60" font-weight="700" fill="#fff" letter-spacing="2">LUNA REY</text><text x="60" y="990" font-family="Arial, Helvetica, sans-serif" font-size="30" fill="#dfe8ff">R&B / Soul</text></svg>