<svg xmlns="http://www.w3.org/2000/svg" width="1200" height="1400" viewBox="0 0 1200 1400" role="img" aria-label="Blocboykiddie artist artwork">
  <defs>
    <radialGradient id="halo" cx="55%" cy="20%" r="75%">
      <stop offset="0" stop-color="#a7c5ff" stop-opacity="1"/>
      <stop offset=".34" stop-color="#152a56"/>
      <stop offset="1" stop-color="#030814"/>
    </radialGradient>
    <linearGradient id="glass" x1="0" x2="1" y1="0" y2="1"><stop offset="0" stop-color="#ffffff" stop-opacity="0.85"/><stop offset="1" stop-color="#8eb7ff" stop-opacity="0.15"/></linearGradient>
    <filter id="blur"><feGaussianBlur stdDeviation="18"/></filter>
  </defs>
  <rect width="1200" height="1400" rx="110" fill="url(#halo)"/>
  <circle cx="780" cy="290" r="330" fill="#8eb7ff" opacity=".24" filter="url(#blur)"/>
  <circle cx="360" cy="1060" r="280" fill="#ffffff" opacity=".08" filter="url(#blur)"/>
  <g opacity=".32" fill="#fff">
    <circle cx="160" cy="220" r="5"/><circle cx="1010" cy="178" r="7"/><circle cx="920" cy="825" r="5"/><circle cx="260" cy="970" r="3"/><circle cx="1080" cy="1110" r="4"/>
  </g>
  <g transform="translate(600 710)">
    <circle r="284" fill="#071126" opacity=".92"/>
    <circle r="230" fill="none" stroke="#ffffff" stroke-opacity=".22" stroke-width="8"/>
    <circle r="160" fill="none" stroke="#8eb7ff" stroke-opacity=".24" stroke-width="6"/>
    <path d="M-430 20 C-240 -75,-120 -110,0 -78 C150 -36,240 74,430 0" stroke="#eaf1ff" stroke-width="8" opacity=".55" fill="none" stroke-linecap="round"/>
    <path d="M-455 48 h910" stroke="#fff" stroke-opacity=".36" stroke-width="4" stroke-linecap="round"/>
    <g fill="#eaf1ff" opacity=".75"><rect x="-520" y="-48" width="18" height="96" rx="9"/><rect x="-472" y="-86" width="18" height="172" rx="9"/><rect x="-424" y="-38" width="18" height="76" rx="9"/><rect x="406" y="-38" width="18" height="76" rx="9"/><rect x="454" y="-86" width="18" height="172" rx="9"/><rect x="502" y="-48" width="18" height="96" rx="9"/></g>
  </g>
  <g transform="translate(600 575)">
    <path d="M-128 36 C-128 -96,-32 -190,90 -166 C175 -149,240 -70,236 32 C230 174,126 256,18 260 C-75 264,-128 174,-128 36Z" fill="#eaf1ff" opacity=".9"/>
    <path d="M-106 20 C-55 82,15 112,98 105 C58 154,10 180,-46 172 C-84 166,-110 106,-106 20Z" fill="#071126" opacity=".78"/>
    <path d="M-96 -44 C8 -96,72 -108,178 -56 C125 -156,16 -224,-94 -168 C-164 -132,-174 -68,-96 -44Z" fill="#050915" opacity=".95"/>
    <rect x="-26" y="194" width="128" height="120" rx="58" fill="#eaf1ff" opacity=".9"/>
  </g>
  <text x="600" y="1180" text-anchor="middle" fill="#fff" font-family="Inter, Arial, sans-serif" font-size="86" font-weight="900" letter-spacing="-2">BLOCBOYKIDDIE</text>
  <text x="600" y="1247" text-anchor="middle" fill="#dce8ff" font-family="Inter, Arial, sans-serif" font-size="28" font-weight="800" letter-spacing="8">NEBULA RECORDS ARTIST</text>
</svg>